<svg width="200" height="200" viewBox="0 0 200 200" fill="none" xmlns="http://www.w3.org/2000/svg">
  <rect width="200" height="200" fill="white"/>
  <rect x="20" y="20" width="70" height="70" fill="black"/>
  <rect x="30" y="30" width="50" height="50" fill="white"/>
  <rect x="40" y="40" width="30" height="30" fill="black"/>
  
  <rect x="110" y="20" width="70" height="70" fill="black"/>
  <rect x="120" y="30" width="50" height="50" fill="white"/>
  <rect x="130" y="40" width="30" height="30" fill="black"/>
  
  <rect x="20" y="110" width="70" height="70" fill="black"/>
  <rect x="30" y="120" width="50" height="50" fill="white"/>
  <rect x="40" y="130" width="30" height="30" fill="black"/>
  
  <rect x="110" y="110" width="20" height="20" fill="black"/>
  <rect x="140" y="110" width="20" height="20" fill="black"/>
  <rect x="170" y="110" width="10" height="10" fill="black"/>
  <rect x="110" y="140" width="10" height="10" fill="black"/>
  <rect x="130" y="140" width="20" height="20" fill="black"/>
  <rect x="160" y="140" width="20" height="20" fill="black"/>
  <rect x="110" y="160" width="20" height="20" fill="black"/>
  <rect x="140" y="170" width="10" height="10" fill="black"/>
  <rect x="160" y="170" width="20" height="10" fill="black"/>
</svg>

